<?xml version="1.0" encoding="UTF-8"?>
<svg id="Layer_1" xmlns="http://www.w3.org/2000/svg" version="1.1" viewBox="0 0 1024 1024">
  <!-- Generator: Adobe Illustrator 29.5.1, SVG Export Plug-In . SVG Version: 2.1.0 Build 141)  -->
  <defs>
    <style>
      .st0 {
        fill: #040404;
      }

      .st1 {
        fill: #fff;
      }

      .st2 {
        fill: #d6d6d5;
      }
    </style>
  </defs>
  <path class="st1" d="M50.3,232.7V50.9h922v923h-183.8c91.8-6.5,171.2-83.4,181.7-174.4,1.9-190.9,1.9-382.3,0-573.1-11.1-89.4-83.9-162.2-173.3-173.3-190.5-1.9-381.6-1.9-572.1,0-92.2,11.5-164.9,87.5-174.4,179.7Z"/>
  <path class="st1" d="M232.1,973.9H50.3v-180.8l6.3,32.2c18,68.8,73.5,124.4,142.3,142.3l33.2,6.3Z"/>
  <path class="st0" d="M190.6,378.6l72.9,189.8,73.9-189.8h70.4v270.7h-54.9v-177.8l-3.5,3-66.6,174.6h-37.7c-21.5-54.3-40.4-109.8-62.3-163.9-1.7-4.2-3.6-12.5-7.7-13.7v177.8h-54.9v-270.7h70.4Z"/>
  <path class="st2" d="M740,379.6l54.9,94,2.6-.7,51.8-93.3h68.9l-86.9,134.4,85.9,135.4h-69.9c0-1.2-.5-2.3-1.1-3.3-17.2-27-34.4-60.9-53-85.9s-1.6-2.8-3.3-2.7l-56.9,91.9h-65.4l83.9-135.4-82.9-134.3h71.4Z"/>
  <polygon class="st0" points="523.8 378.6 523.8 597.8 525.3 599.3 640.6 599.3 640.6 649.3 461.8 649.3 461.8 380.1 463.3 378.6 523.8 378.6"/>
</svg>