<svg width="107" height="81" viewBox="0 0 107 81" fill="none" xmlns="http://www.w3.org/2000/svg">
<path d="M56.0675 80.8914C56.1571 80.8259 56.169 80.5698 56.2048 78.0632C56.2287 76.5449 56.2705 75.0266 56.3064 74.6813C56.3362 74.336 56.3899 73.7227 56.4258 73.3119C56.4855 72.5795 56.5094 72.389 56.7004 71.0791C56.8736 69.8704 56.8975 69.7097 57.0229 69.0845C57.3692 67.3221 57.5603 66.4766 57.8767 65.2739C58.1633 64.2022 58.2111 64.0355 58.3066 63.7556C58.3544 63.6247 58.4499 63.315 58.5216 63.0709C58.9037 61.767 60.1158 58.6114 60.7249 57.3253C61.1727 56.3786 62.0086 54.6936 62.2057 54.3483C62.4863 53.8422 62.8983 53.1039 62.964 52.9967C62.9939 52.9431 63.1372 52.705 63.2805 52.4608C63.6925 51.7642 63.7641 51.6511 64.2716 50.8652C65.0538 49.6565 65.8122 48.5907 66.8153 47.2927C67.3348 46.6199 67.8124 46.0186 67.8722 45.9531C67.9319 45.8876 68.0632 45.7387 68.1588 45.6197C68.517 45.185 69.6634 43.9168 70.1471 43.4167C70.5173 43.0356 70.6725 42.9046 70.7561 42.9284C70.8218 42.9463 71.3234 43.3512 71.8727 43.8335C74.7268 46.3103 77.2287 48.0727 80.7874 50.1209C81.5517 50.5615 83.9878 51.7999 84.7581 52.1393C84.9551 52.2286 85.194 52.3358 85.2955 52.3834C85.6179 52.5323 86.7822 53.0205 87.1166 53.1396C87.2958 53.2051 87.5525 53.3063 87.6839 53.3659C88.2989 53.6338 89.9946 54.2232 91.0276 54.5388C93.2548 55.2057 94.8371 55.6046 96.4015 55.8963C96.8254 55.9797 97.2971 56.069 97.4464 56.1047C99.2974 56.4977 103.8 56.9383 106.027 56.9383C106.809 56.9383 106.881 56.9264 106.94 56.8252C106.976 56.7537 107 56.2417 107 55.5748C107 54.6817 106.982 54.4257 106.916 54.3602C106.851 54.2947 106.492 54.2709 105.227 54.2411C104.349 54.2232 103.358 54.1756 103.029 54.1458C102.701 54.1101 102.152 54.0565 101.805 54.0208C100.277 53.866 99.2795 53.7291 98.4615 53.5743C98.2167 53.5207 97.8525 53.4552 97.6554 53.4194C96.8911 53.2765 95.6193 53.0205 95.3566 52.9491C95.2431 52.9193 94.867 52.824 94.5206 52.7347C93.1175 52.3894 92.3711 52.1751 90.9381 51.6987C90.2335 51.4606 89.6304 51.2462 89.5946 51.2165C89.5647 51.1867 89.505 51.1629 89.4632 51.1629C89.3796 51.1629 87.9944 50.6389 87.5644 50.4484C87.4988 50.4186 87.2838 50.3293 87.0868 50.2459C84.3162 49.1147 80.5724 47.0308 77.6526 44.9885C75.9569 43.8037 72.7266 41.1601 72.7266 40.9577C72.7266 40.8802 73.4371 40.2372 74.5776 39.2786C75.1627 38.7844 76.8585 37.4805 77.5929 36.9625C78.8408 36.0813 81.0083 34.7119 82.0473 34.1522C82.2264 34.0569 82.6503 33.8188 82.9966 33.6282C83.7012 33.2353 85.6478 32.2886 86.7882 31.7825C87.4092 31.5086 89.3796 30.7405 89.4632 30.7405C89.511 30.7405 89.5588 30.7227 89.5826 30.7048C89.6483 30.6393 91.1291 30.1332 92.2218 29.7998C92.7711 29.6331 93.016 29.5616 93.834 29.3354C94.5206 29.1449 96.4254 28.7162 97.3569 28.5435C97.7151 28.472 98.2167 28.3827 98.4615 28.3351C100.384 27.966 103.817 27.6504 105.877 27.6444C106.648 27.6444 106.827 27.6266 106.904 27.5492C106.982 27.4718 107 27.2753 107 26.3107C107 25.4474 106.982 25.1378 106.922 25.0604C106.845 24.9532 106.755 24.9532 105.591 24.983C103.483 25.0425 101.763 25.1795 99.9244 25.4176C98.9332 25.5486 96.8195 25.8999 96.2522 26.0249C96.103 26.0547 95.7805 26.1262 95.5357 26.1797C94.3833 26.4298 92.2756 26.9776 91.6247 27.1979C91.4934 27.2396 91.2247 27.3229 91.0276 27.3765C90.5559 27.5134 89.4274 27.8886 88.7885 28.1148C88.3168 28.2875 88.0899 28.3768 87.6242 28.5673C87.5227 28.609 87.2002 28.74 86.9076 28.8531C83.3848 30.2285 79.8022 32.1874 75.8912 34.8905C74.9716 35.5276 72.9117 37.159 71.7473 38.1771C71.2935 38.576 70.8636 38.9333 70.792 38.969C70.6845 39.0285 70.6069 38.969 70.0635 38.4034C68.7738 37.0637 67.3168 35.3192 65.9614 33.4972C65.3106 32.622 63.794 30.3535 63.4417 29.7283C63.3581 29.5795 63.2267 29.3532 63.1491 29.2223C61.8594 27.1086 60.2472 23.7148 59.3516 21.2438C59.2501 20.9521 59.1366 20.6544 59.1127 20.5889C58.7246 19.6244 57.9185 16.9391 57.614 15.6173C57.5901 15.5042 57.5125 15.1529 57.4408 14.8433C57.1124 13.3905 56.9035 12.2592 56.6945 10.8243C56.4795 9.2822 56.4735 9.27029 56.3004 7.16256C56.2705 6.78746 56.2287 5.27513 56.2108 3.79853C56.1869 2.16713 56.1511 1.08945 56.1153 1.04777C56.0257 0.940597 50.9922 0.934642 50.8847 1.04181C50.831 1.0954 50.8131 1.66103 50.8131 3.20313C50.8071 6.1861 50.7354 7.46622 50.419 10.0205C50.1861 11.9198 49.9413 13.2714 49.4218 15.4982C49.3084 15.9864 48.974 17.2606 48.9023 17.4928C48.8665 17.594 48.7471 17.9929 48.6277 18.3859C48.3948 19.1659 48.1739 19.8387 47.8873 20.6187C47.7858 20.8985 47.6663 21.2319 47.6186 21.3629C47.5171 21.6725 47.3678 22.0476 47.0334 22.8514C46.6334 23.8219 46.5796 23.941 46.3647 24.3995C46.2572 24.6317 46.0542 25.0604 45.9168 25.3521C45.2003 26.8823 44.4301 28.2994 43.3314 30.1154C42.9791 30.7048 41.4506 32.9733 41.0326 33.527C39.1458 36.0634 36.5185 39.0464 36.2498 38.975C36.1901 38.9571 35.8438 38.6892 35.4855 38.3736C34.1898 37.2304 32.4284 35.8253 31.0969 34.8726C30.5714 34.4975 28.6189 33.1936 28.2726 32.9912C28.0756 32.878 27.3889 32.4732 26.75 32.098C25.4901 31.3597 22.0867 29.6093 21.9135 29.6093C21.8896 29.6093 21.6388 29.5021 21.3642 29.3771C21.0955 29.252 20.5461 29.0198 20.1521 28.871C19.758 28.7162 19.3818 28.5733 19.3161 28.5435C18.3488 28.1327 16.8382 27.6206 15.2857 27.1681C15.0409 27.0967 14.7543 27.0133 14.6588 26.9835C13.572 26.6501 10.9209 26.0249 9.88197 25.8582C9.71478 25.8344 9.1774 25.7451 8.68777 25.6617C6.31132 25.2688 3.95875 25.0485 1.39123 24.983C0.143301 24.9532 0.131353 24.9532 0.0597055 25.0782C-0.0418036 25.2688 -9.95039e-06 27.5134 0.107473 27.5789C0.149267 27.6027 0.889669 27.6444 1.74949 27.6623C2.60931 27.6861 3.58259 27.7278 3.91099 27.7635C4.23939 27.7933 4.78872 27.8469 5.13504 27.8826C6.18593 27.9838 8.45491 28.2756 8.53253 28.3232C8.55044 28.3351 8.82511 28.3946 9.13559 28.4482C10.3537 28.6685 11.6434 28.9424 12.1509 29.0853C12.2823 29.121 12.5391 29.1865 12.7182 29.2282C14.9931 29.7641 18.4742 30.9787 20.7611 32.0266C21.0179 32.1457 21.4 32.3243 21.6149 32.4196C24.2064 33.6104 27.6218 35.6347 30.0042 37.3852C31.8432 38.7368 34.2316 40.7433 34.2555 40.9517C34.2675 41.041 33.9988 41.303 33.2405 41.946C32.0522 42.9582 31.4969 43.4167 31.3118 43.5417C31.2402 43.5893 30.7565 43.9466 30.243 44.3395C28.4099 45.7149 26.0574 47.2034 23.8242 48.3942C22.5225 49.0849 20.0744 50.2221 18.928 50.6568C18.8146 50.6984 18.4742 50.8294 18.1816 50.9426C17.083 51.3653 14.9872 52.0798 14.2886 52.2703C14.0975 52.3179 13.7392 52.4132 13.4944 52.4847C11.9718 52.8955 10.8314 53.1456 8.74748 53.5385C7.82795 53.7112 6.4188 53.9017 5.19474 54.0208C4.84843 54.0565 4.2991 54.1101 3.97069 54.1458C3.64229 54.1756 2.65111 54.2232 1.77337 54.2411C0.2448 54.2768 0.167178 54.2828 0.083583 54.4019C0.0179015 54.4971 -1.23323e-05 54.7591 -1.24072e-05 55.6165C-1.24629e-05 56.2536 0.0238751 56.7537 0.0597028 56.8251C0.11941 56.9264 0.197032 56.9383 0.985202 56.9383C2.30479 56.9383 6.58599 56.6227 7.04575 56.4917C7.09352 56.4739 7.36222 56.4381 7.64285 56.4024C8.56835 56.2952 10.7597 55.9082 11.5538 55.7177C11.7509 55.6701 12.1509 55.5748 12.4495 55.5034C15.2797 54.8365 18.2533 53.8541 21.1373 52.6395C22.4748 52.0738 24.8154 50.9187 26.123 50.1804C29.622 48.2037 32.5 46.1555 35.4855 43.5298C35.8438 43.2142 36.1841 42.9463 36.2439 42.9284C36.4946 42.8629 39.1159 45.8102 40.7101 47.9477C41.355 48.817 41.6536 49.2397 42.4298 50.3948C42.9015 51.1093 43.2896 51.7047 43.2896 51.7344C43.2896 51.7583 43.3254 51.8238 43.3732 51.8714C43.4568 51.9667 44.7286 54.1816 45.0331 54.7651C45.2541 55.1818 45.4929 55.6701 45.875 56.462C46.5438 57.8731 46.7946 58.4268 47.0872 59.2008C47.1708 59.4152 47.2603 59.6355 47.2902 59.689C47.326 59.7486 47.4275 60.0165 47.523 60.2844C47.6186 60.5583 47.7858 61.0049 47.8873 61.2847C48.1619 62.0349 48.3291 62.5351 48.5978 63.4282C48.7351 63.8688 48.8665 64.3153 48.9023 64.4106C48.974 64.6487 49.3084 65.917 49.4218 66.4052C49.8159 68.1021 50.0428 69.2512 50.3055 70.9005C50.616 72.8653 50.7593 74.9314 50.7951 77.9679C50.825 80.3436 50.8429 80.8259 50.9146 80.8854C51.0399 80.9866 55.9182 80.9926 56.0675 80.8914ZM53.3567 74.5205C53.3029 73.4905 52.9984 70.7754 52.8193 69.7394C52.7715 69.4596 52.676 68.8999 52.6043 68.4891C52.5327 68.0783 52.4551 67.6377 52.4192 67.5067C52.3894 67.3757 52.258 66.7863 52.1267 66.1968C51.9893 65.6073 51.858 65.0477 51.8281 64.9465C51.7983 64.8512 51.6788 64.4344 51.5594 64.0236C51.1952 62.7613 51.1653 62.6482 50.9205 61.8801C50.5384 60.6893 50.0906 59.4509 49.6129 58.3077C49.4457 57.8969 49.2606 57.4444 49.2009 57.2955C49.0098 56.8192 48.5859 55.8963 48.1381 54.9734C47.4275 53.5147 46.1497 51.2165 45.3914 50.0316C43.4687 47.0248 41.2416 44.1252 39.2831 42.083C38.5188 41.2851 38.3337 41.0648 38.3337 40.9517C38.3337 40.8922 38.6502 40.5051 39.0383 40.0943C41.2057 37.7782 43.415 34.9738 44.9734 32.5446C45.2481 32.1159 46.502 30.0439 46.6692 29.7403C47.111 28.9365 47.9052 27.4182 48.2694 26.662C48.6635 25.8523 49.5591 23.8279 49.5591 23.7386C49.5591 23.7207 49.595 23.6195 49.6427 23.5183C50.0309 22.6669 50.5921 21.1069 51.1116 19.4279C51.2131 19.0825 51.3504 18.6419 51.4161 18.4455C51.7266 17.4333 52.3357 14.9326 52.5208 13.8906C52.8432 12.0627 52.9208 11.5388 53.1417 9.8002C53.2432 8.97854 53.3806 7.26973 53.3806 6.82318C53.3806 6.72792 53.4164 6.68624 53.494 6.68624C53.5955 6.68624 53.6134 6.74578 53.6433 7.21019C53.8523 10.1574 54.1329 12.1461 54.7061 14.9028C54.9271 15.9388 55.345 17.594 55.5958 18.4157C55.6615 18.63 55.7391 18.8861 55.769 18.9813C56.1392 20.2317 56.9333 22.5418 57.1423 22.9705C57.1722 23.036 57.3334 23.4409 57.5065 23.8636C58.3245 25.9237 59.7098 28.7043 60.9279 30.7405C63.0058 34.2177 65.4718 37.4805 68.0513 40.1598C68.4215 40.5409 68.726 40.8981 68.726 40.9517C68.726 41.0231 68.1408 41.684 67.5318 42.2914C66.6959 43.1309 64.415 45.9412 63.3879 47.4059C62.552 48.5848 62.3908 48.8289 62.2176 49.1087C62.1161 49.2754 61.9012 49.6089 61.7399 49.853C61.3996 50.3829 60.3666 52.0976 60.3666 52.1393C60.3666 52.1572 60.283 52.312 60.1756 52.4847C59.9427 52.8776 58.4858 55.7534 58.241 56.3131C57.2139 58.6352 56.384 60.8501 55.8287 62.7137C55.757 62.9578 55.6495 63.321 55.5898 63.5175C55.5361 63.714 55.4406 64.0474 55.3809 64.2617C55.3211 64.4761 55.2435 64.7678 55.1958 64.9167C55.0405 65.4525 54.5807 67.471 54.5151 67.9235C54.4852 68.0902 54.4255 68.4355 54.3777 68.6975C54.0374 70.5016 53.8165 72.3056 53.6433 74.6992C53.6134 75.1457 53.5955 75.2172 53.5 75.2172C53.4045 75.2172 53.3865 75.1398 53.3567 74.5205Z" fill="url(#paint0_linear_12_104)"/>
<defs>
<linearGradient id="paint0_linear_12_104" x1="107" y1="40.9287" x2="-3.49379e-06" y2="40.9287" gradientUnits="userSpaceOnUse">
<stop/>
<stop offset="1" stop-color="#0416D5"/>
</linearGradient>
</defs>
</svg>
